<?xml version="1.0" standalone="no"?>
<!DOCTYPE svg PUBLIC "-//W3C//DTD SVG 20010904//EN"
 "http://www.w3.org/TR/2001/REC-SVG-20010904/DTD/svg10.dtd">
<svg version="1.0" xmlns="http://www.w3.org/2000/svg"
 width="32.000000pt" height="32.000000pt" viewBox="0 0 32.000000 32.000000"
 preserveAspectRatio="xMidYMid meet">

<g transform="translate(0.000000,32.000000) scale(0.100000,-0.100000)"
fill="#000000" stroke="none">
<path d="M54 307 c-2 -7 -3 -78 -2 -157 l3 -145 105 0 105 0 3 108 3 107 -26
0 c-47 0 -65 17 -65 60 l0 40 -60 0 c-40 0 -62 -4 -66 -13z m176 -137 c0 -6
-30 -10 -70 -10 -40 0 -70 4 -70 10 0 6 30 10 70 10 40 0 70 -4 70 -10z m0
-50 c0 -6 -30 -10 -70 -10 -40 0 -70 4 -70 10 0 6 30 10 70 10 40 0 70 -4 70
-10z m-5 -50 c4 -6 -20 -10 -65 -10 -45 0 -69 4 -65 10 8 13 122 13 130 0z"/>
<path d="M200 280 c0 -27 3 -30 32 -30 l32 0 -29 30 c-16 17 -30 30 -32 30 -2
0 -3 -13 -3 -30z"/>
</g>
</svg>
