<?xml version="1.0" standalone="no"?>
<!DOCTYPE svg PUBLIC "-//W3C//DTD SVG 20010904//EN"
 "http://www.w3.org/TR/2001/REC-SVG-20010904/DTD/svg10.dtd">
<svg version="1.0" xmlns="http://www.w3.org/2000/svg"
 width="32.000000pt" height="32.000000pt" viewBox="0 0 32.000000 32.000000"
 preserveAspectRatio="xMidYMid meet">

<g transform="translate(0.000000,32.000000) scale(0.100000,-0.100000)"
fill="#000000" stroke="none">
<path d="M77 242 c-42 -42 -77 -81 -77 -85 0 -4 9 -7 20 -7 17 0 19 -8 22 -72
l3 -73 40 0 40 0 3 48 c3 45 5 47 32 47 27 0 29 -2 32 -47 l3 -48 40 0 40 0 3
73 c3 64 5 72 22 72 11 0 20 4 20 9 0 9 -145 154 -158 159 -4 1 -42 -33 -85
-76z"/>
</g>
</svg>
